# xmcd
#
# Track frame offsets: 
#        150
#        18749
#        32672
#        47841
#        68673
#        88586
#        106318
#        122498
#        141439
#        161724
#        175961
#        210720
#        226490
#        240871
#        256722
#        271949
#        288579
#        305389
#        320230
#        337107
#
# Disc length: 4730 seconds
#
# Revision: 0
# Processed by: cddbd v1.5.2PL0 Copyright (c) Steve Scherf et al.
# Submitted via: ExactAudioCopy v0.95b4
#
DISCID=23127814
DTITLE=Света - Не надо больше (полная версия)
DYEAR=1900
DGENRE=Pop
TTITLE0=Я запру дверь
TTITLE1=Не надо больше
TTITLE2=Ночь
TTITLE3=Не называй
TTITLE4=Ты не звонишь
TTITLE5=А как же любовь?
TTITLE6=Мимо пройти
TTITLE7=Небо и море
TTITLE8=Три, четыре, пять
TTITLE9=Месяц
TTITLE10=Светит луна (Neomaster feat. Света)
TTITLE11=Извини
TTITLE12=Не просто так
TTITLE13=В машине
TTITLE14=А может да...
TTITLE15=Где найти любовь
TTITLE16=Ты не мой
TTITLE17=Не обижай меня
TTITLE18=По шоссе
TTITLE19=Все-таки можно
EXTD=TYPEST THIS TEXT: vadim s. sabinich \nmailto: sabinich@5070.info
EXTT0=
EXTT1=
EXTT2=
EXTT3=
EXTT4=
EXTT5=
EXTT6=
EXTT7=
EXTT8=
EXTT9=
EXTT10=
EXTT11=
EXTT12=
EXTT13=
EXTT14=
EXTT15=
EXTT16=
EXTT17=
EXTT18=
EXTT19=
PLAYORDER=
